<?xml version="1.0" encoding="UTF-8"?><svg xmlns="http://www.w3.org/2000/svg" xmlns:xlink="http://www.w3.org/1999/xlink"><symbol viewBox="-10 -10 35 33" id="ico-chk-select" xmlns="http://www.w3.org/2000/svg"><g fill="none" fill-rule="evenodd"><path d="M-3-4h20v20H-3z"/><path stroke="#CCC" stroke-width="2.5" fill="none" stroke-linecap="round" stroke-linejoin="round" d="M2 6.266L6.124 11 13 2"/></g></symbol><symbol viewBox="-10 -10 35 33" id="ico-chk-selected-s" xmlns="http://www.w3.org/2000/svg"><g fill="none" fill-rule="evenodd"><path d="M-3-4h20v20H-3z"/><path stroke="#4876EF" stroke-width="2.5" fill="none" stroke-linecap="round" stroke-linejoin="round" d="M2 6.266L6.124 11 13 2"/></g></symbol><symbol viewBox="-10 -10 34 28" id="ico-down" xmlns="http://www.w3.org/2000/svg"><g fill="none"><path d="M0 0h14v8H0z"/><path fill="#444" d="M7 6.293L12.646.646l.708.708L7 7.707.646 1.354l.708-.708z"/></g></symbol><symbol viewBox="-10 -10 33 33" id="ico-no-grey" xmlns="http://www.w3.org/2000/svg"><g stroke="#CCC" stroke-width="2.5" fill="none" fill-rule="evenodd" stroke-linecap="round"><path d="M2 11l9-9" fill="none" stroke-linejoin="round"/><path d="M2 2l9 9"/></g></symbol><symbol viewBox="-10 -10 34 33" id="ico-pen" xmlns="http://www.w3.org/2000/svg"><path d="M3.058 8.57l-.265 2.387 2.386-.265 6.24-6.24A1.5 1.5 0 0 0 9.3 2.33l-6.24 6.24z" fill-rule="nonzero" stroke="#C1C1C1" fill="none"/></symbol><symbol viewBox="-10 -10 34 28" id="ico-up" xmlns="http://www.w3.org/2000/svg"><g fill="none" fill-rule="evenodd"><path d="M14 8H0V0h14z"/><path fill="#444" fill-rule="nonzero" d="M7 1.707L1.354 7.354l-.708-.708L7 .293l6.354 6.353-.708.708z"/></g></symbol><symbol viewBox="-10 -10 36 36" id="icon-reset" xmlns="http://www.w3.org/2000/svg"><g fill="#A0A0A0" fill-rule="evenodd"><path fill-rule="nonzero" d="M8 2.933c.285 0 .516.228.516.51 0 .28-.23.509-.516.509-2.744 0-4.968 2.195-4.968 4.904 0 2.708 2.224 4.904 4.968 4.904 2.744 0 4.968-2.196 4.968-4.904 0-.282.23-.51.516-.51.285 0 .516.228.516.51 0 3.271-2.686 5.923-6 5.923s-6-2.652-6-5.923 2.686-5.923 6-5.923z"/><path d="M8.05 1.11v5.923l4.03-2.963z"/></g></symbol><symbol viewBox="-10 -10 30 30" id="x" xmlns="http://www.w3.org/2000/svg"><g fill-rule="nonzero" fill="none"><path d="M5 4.266L8.266 1 9 1.734 5.734 5 9 8.266 8.266 9 5 5.734 1.734 9 1 8.266 4.266 5 1 1.734 1.734 1 5 4.266z" fill="#91ACF5"/><path d="M0 0h10v10H0z"/></g></symbol></svg>